<svg width="512" height="512" viewBox="0 0 512 512" xmlns="http://www.w3.org/2000/svg" role="img" aria-label="Futuristic basketball data visualization">
  <defs>
    <linearGradient id="bg" x1="0%" y1="0%" x2="0%" y2="100%">
      <stop offset="0%" stop-color="#050712" />
      <stop offset="100%" stop-color="#0d1430" />
    </linearGradient>
    <linearGradient id="line" x1="0%" y1="0%" x2="100%" y2="0%">
      <stop offset="0%" stop-color="#5b8cff" />
      <stop offset="100%" stop-color="#f4b23f" />
    </linearGradient>
    <radialGradient id="glow" cx="50%" cy="50%" r="50%">
      <stop offset="0%" stop-color="#f4b23f" stop-opacity="1" />
      <stop offset="70%" stop-color="#f4b23f" stop-opacity="0.2" />
      <stop offset="100%" stop-color="#f4b23f" stop-opacity="0" />
    </radialGradient>
  </defs>
  <rect width="512" height="512" fill="url(#bg)" />
  <g stroke="#243055" stroke-width="1">
    <path d="M0 420 H512" />
    <path d="M0 320 H512" />
    <path d="M0 220 H512" />
    <path d="M0 120 H512" />
  </g>
  <polyline points="60,360 150,300 230,340 320,200 410,240" fill="none" stroke="url(#line)" stroke-width="12" stroke-linecap="round" stroke-linejoin="round" />
  <circle cx="410" cy="240" r="40" fill="#f4b23f" stroke="#fbe6b7" stroke-width="6" />
  <circle cx="410" cy="240" r="60" fill="url(#glow)" />
  <path d="M410 200 V280 M370 240 H450" stroke="#ce7b2c" stroke-width="5" />
  <path d="M386 216 Q410 232 434 216" fill="none" stroke="#ce7b2c" stroke-width="5" />
  <path d="M386 264 Q410 248 434 264" fill="none" stroke="#ce7b2c" stroke-width="5" />
</svg>
